#tb 0: 1001/4000
#media_type 0: video
#codec_id 0: rawvideo
#dimensions 0: 320x180
#sar 0: 1/1
0,          0,          0,        1,   172800, 0x5adff92c
0,          1,          1,        1,   172800, 0x37b7f659
0,          2,          2,        1,   172800, 0xb4a6f1d1
0,          3,          3,        1,   172800, 0xd596f9c6
0,          4,          4,        1,   172800, 0xff5a015b
0,          5,          5,        1,   172800, 0x65477f11
0,          6,          6,        1,   172800, 0x41569400
0,          7,          7,        1,   172800, 0xcff9ddf9
0,          8,          8,        1,   172800, 0xd6daba1e
0,          9,          9,        1,   172800, 0xad83bda1
0,         10,         10,        1,   172800, 0x1518bdb3
0,         11,         11,        1,   172800, 0xfdd1c7ca
